Coordinates
version=1
nRows=22
nColumns=24
inDegrees=yes

Units are S.I. units (second, meters, Newtons, ...)
Angles are in degrees.

endheader
time	pelvis_tilt	pelvis_list	pelvis_rotation	pelvis_tx	pelvis_ty	pelvis_tz	hip_flexion_r	hip_adduction_r	hip_rotation_r	knee_angle_r	ankle_angle_r	subtalar_angle_r	mtp_angle_r	hip_flexion_l	hip_adduction_l	hip_rotation_l	knee_angle_l	ankle_angle_l	subtalar_angle_l	mtp_angle_l	lumbar_extension	lumbar_bending	lumbar_rotation
      1.71200000	      2.26077569	      0.43112858	     -3.71032424	      1.36933866	      1.02289053	      0.30861303	     20.83875603	     -4.13102918	     -7.19658104	    -65.35519811	      1.16408853	     -5.33745312	     -5.18923000	      6.06749182	      3.06251780	     -4.53734654	    -14.06086588	      2.55129168	    -14.77109938	     -9.62267081	    -12.38737889	     -3.18498463	     -0.96178861
      1.71616667	      2.43031105	      0.29197997	     -3.41799609	      1.37434623	      1.02388897	      0.30774121	     21.05103461	     -4.04319670	     -7.59506327	    -64.51084664	      1.60689492	     -5.17143308	     -5.14372950	      5.40663342	      3.01380345	     -4.26366913	    -13.71039604	      2.56610147	    -14.75283933	     -9.61741246	    -12.62083838	     -2.93319065	     -1.24296989
      1.72033333	      2.48342008	      0.18291764	     -3.21176096	      1.37939299	      1.02461857	      0.30706997	     21.40649676	     -3.94119283	     -7.88093230	    -63.66265355	      2.06277488	     -4.88639765	     -5.11864981	      4.87784587	      2.96782948	     -4.09311583	    -13.38972451	      2.63495502	    -14.69472922	     -9.61155382	    -12.70553374	     -2.72819062	     -1.36989985
      1.72450000	      2.64651523	      0.05194308	     -2.94662809	      1.38437399	      1.02552131	      0.30625379	     21.60327081	     -3.85582625	     -8.25265356	    -62.73935034	      2.49583912	     -4.75164065	     -5.09694858	      4.22929530	      2.91437725	     -3.83622676	    -13.04541304	      2.64675626	    -14.70085675	     -9.59862861	    -12.93027451	     -2.47947928	     -1.63294476
      1.72866667	      2.67316792	     -0.04282799	     -2.77667139	      1.38937286	      1.02611030	      0.30568822	     21.96969333	     -3.75174786	     -8.49754413	    -61.82077538	      2.91766927	     -4.54103302	     -5.08564031	      3.74313707	      2.86862518	     -3.69285184	    -12.73885029	      2.71058096	    -14.65737606	     -9.58735861	    -12.98547238	     -2.29724361	     -1.74408508
      1.73283333	      2.80266089	     -0.15218246	     -2.54191184	      1.39434804	      1.02686988	      0.30494839	     22.17841089	     -3.67668808	     -8.82906828	    -60.82632394	      3.33431112	     -4.43961204	     -5.08303647	      3.13877874	      2.82367654	     -3.46736636	    -12.40922987	      2.72973593	    -14.67548736	     -9.56944071	    -13.16359419	     -2.07885517	     -1.95319182
      1.73700000	      2.89122524	     -0.25174783	     -2.34614504	      1.39928689	      1.02749439	      0.30431494	     22.43161076	     -3.59007568	     -9.11082749	    -59.80571287	      3.73963335	     -4.31118255	     -5.08988297	      2.59392188	      2.77566828	     -3.28404800	    -12.10936490	      2.77893022	    -14.67313433	     -9.54639006	    -13.28988506	     -1.88191185	     -2.09036338
      1.74116667	      2.87365353	     -0.31487069	     -2.21020386	      1.40427303	      1.02788133	      0.30383023	     22.80950244	     -3.50812407	     -9.31306007	    -58.77928260	      4.11944971	     -4.17913746	     -5.09617592	      2.16678978	      2.75137103	     -3.16695236	    -11.82654017	      2.84199874	    -14.66038769	     -9.53357051	    -13.27999683	     -1.73406842	     -2.15406552
      1.74533333	      2.97370267	     -0.41604756	     -2.00040119	      1.40915000	      1.02846228	      0.30319780	     23.00787348	     -3.42275139	     -9.60225585	    -57.66726404	      4.50572872	     -4.13081756	     -5.12593264	      1.62631601	      2.69493993	     -2.95780550	    -11.54728916	      2.90167348	    -14.65499887	     -9.50526939	    -13.44021111	     -1.53705926	     -2.33480979
      1.74950000	      2.97815286	     -0.46359336	     -1.89262553	      1.41408353	      1.02878608	      0.30278348	     23.33797647	     -3.34706719	     -9.76978899	    -56.56746022	      4.83672346	     -4.05448762	     -5.14552603	      1.18391280	      2.68106971	     -2.87384805	    -11.27868832	      2.97357074	    -14.65444313	     -9.48580261	    -13.45638119	     -1.41497737	     -2.39110494
      1.75366667	      3.02909449	     -0.52410110	     -1.72545286	      1.41893608	      1.02917487	      0.30227867	     23.57910296	     -3.27890596	     -9.99182327	    -55.40668808	      5.19451824	     -4.05464060	     -5.18735712	      0.70610867	      2.65500434	     -2.70637935	    -11.01924475	      3.04722257	    -14.62928489	     -9.45691114	    -13.55219600	     -1.27423090	     -2.51353589
      1.75783333	      3.03829583	     -0.57078274	     -1.60659490	      1.42382390	      1.02944964	      0.30188121	     23.85813647	     -3.20252052	    -10.15913488	    -54.21431360	      5.51424408	     -4.03999838	     -5.23332561	      0.26851663	      2.63665778	     -2.59658393	    -10.76162503	      3.12592256	    -14.62224861	     -9.42783593	    -13.59410301	     -1.15864553	     -2.58245134
      1.76200000	      3.05786271	     -0.60839105	     -1.50089839	      1.42869884	      1.02969085	      0.30151843	     24.11175255	     -3.12926265	    -10.30882928	    -52.98813057	      5.82059762	     -4.05105029	     -5.28276907	     -0.16861374	      2.62381825	     -2.52526531	    -10.52730204	      3.22770431	    -14.59336753	     -9.40006159	    -13.63672233	     -1.05216859	     -2.63835857
      1.76616667	      2.96839998	     -0.58748044	     -1.46243728	      1.43356523	      1.02967276	      0.30132761	     24.50194454	     -3.07751158	    -10.35897373	    -51.77284303	      6.14672437	     -4.06415636	     -5.29583495	     -0.48912386	      2.66676845	     -2.50328171	    -10.29360764	      3.30703954	    -14.59536179	     -9.39253160	    -13.55370377	     -1.03298692	     -2.64906831
      1.77033333	      2.96033982	     -0.63445649	     -1.34894280	      1.43846686	      1.02982709	      0.30095801	     24.73446663	     -2.99696107	    -10.51640885	    -50.44538930	      6.35064937	     -4.10031697	     -5.34518723	     -0.89359468	      2.63883880	     -2.43020881	    -10.06659993	      3.44147140	    -14.52416733	     -9.37107890	    -13.56337010	     -0.91102331	     -2.68139573
      1.77450000	      2.88658533	     -0.59681867	     -1.30068242	      1.44326206	      1.02974458	      0.30078498	     25.07348524	     -2.96164641	    -10.55823128	    -49.15822507	      6.68689303	     -4.13871547	     -5.36387140	     -1.21042447	      2.69595459	     -2.40537721	     -9.86306688	      3.53330316	    -14.52136122	     -9.36343193	    -13.50678272	     -0.90948157	     -2.70480586
      1.77866667	      2.88427947	     -0.62580906	     -1.19788168	      1.44813977	      1.02981425	      0.30046108	     25.26667859	     -2.89296313	    -10.69345493	    -47.76167230	      6.85691588	     -4.19768835	     -5.42065336	     -1.60757164	      2.68266414	     -2.34901980	     -9.66788442	      3.69286324	    -14.43712215	     -9.34260934	    -13.52696349	     -0.81563199	     -2.73021906
      1.78283333	      2.79890614	     -0.57530727	     -1.16401875	      1.45296592	      1.02963919	      0.30033185	     25.57902066	     -2.86083997	    -10.70730540	    -46.40345653	      7.16818032	     -4.24521553	     -5.44302584	     -1.91839126	      2.75144966	     -2.33333186	     -9.45313523	      3.79688679	    -14.42885158	     -9.33466673	    -13.45982314	     -0.83646666	     -2.75151103
      1.78700000	      2.81013956	     -0.59393137	     -1.07034419	      1.45778836	      1.02966360	      0.30006297	     25.71848697	     -2.78861564	    -10.81330545	    -44.92084788	      7.30694723	     -4.34776944	     -5.51528999	     -2.32170057	      2.74410037	     -2.28518522	     -9.26654353	      3.96470820	    -14.32053774	     -9.31302505	    -13.50694328	     -0.75687626	     -2.77494921
      1.79116667	      2.70675032	     -0.53371918	     -1.03715066	      1.46264140	      1.02938926	      0.29993709	     26.00558688	     -2.76814244	    -10.82546071	    -43.48515701	      7.57873433	     -4.37949495	     -5.54085626	     -2.60429940	      2.82103852	     -2.28851444	     -9.07800226	      4.08341542	    -14.31929861	     -9.30689753	    -13.40925796	     -0.78646098	     -2.78902475
      1.79533333	      2.72215756	     -0.53299499	     -0.95627216	      1.46749101	      1.02933494	      0.29974027	     26.10252142	     -2.70318792	    -10.90144038	    -41.94357736	      7.73751459	     -4.48187896	     -5.64546537	     -3.01061870	      2.82742980	     -2.27702730	     -8.90382993	      4.27873384	    -14.17115345	     -9.28596766	    -13.45542548	     -0.73385838	     -2.80503152
      1.79950000	      2.59349099	     -0.44780332	     -0.92746050	      1.47230547	      1.02893674	      0.29962993	     26.38561281	     -2.70470448	    -10.89439392	    -40.44371537	      7.94816197	     -4.49154706	     -5.67367875	     -3.25204123	      2.93054968	     -2.27249008	     -8.73561399	      4.40257927	    -14.16908948	     -9.28047982	    -13.32872645	     -0.78901920	     -2.81015849
